<svg width="179" height="31" viewBox="0 0 179 31" fill="none" xmlns="http://www.w3.org/2000/svg">
<g clip-path="url(#clip0_1_3)">
<path d="M15.5 0C24.0598 0 31 6.94021 31 15.5C31 18.2323 30.2922 20.7966 29.0505 23.0251L24.7946 18.7692V12.5727H21.6934V15.668L15.5 9.47455L1.94953 23.0251C0.710918 20.7966 -8.9407e-08 18.2323 -8.9407e-08 15.5C-8.9407e-08 6.94021 6.9403 0 15.5 0Z" fill="black"/>
<path d="M15.5 12.5727L27.8239 24.8965C24.9926 28.6065 20.5267 31 15.5 31C10.4733 31 6.00753 28.6065 3.17612 24.8965L15.5 12.5727ZM16.3368 27.6529H18.8472V25.1424H16.3368V27.6529ZM16.3368 23.8827H18.8472V21.3725H16.3368V23.8827ZM12.1499 27.6529H14.6602V25.1424H12.1499V27.6529ZM12.1499 23.8827H14.6602V21.3725H12.1499V23.8827Z" fill="black"/>
</g>
<path d="M47.6484 11.2275V10.709C47.6484 10.5332 47.6807 10.4072 47.7451 10.3311C47.8154 10.2549 47.9062 10.2168 48.0176 10.2168C48.1289 10.2168 48.2168 10.2549 48.2812 10.3311C48.3516 10.4072 48.3867 10.5332 48.3867 10.709V12.7568C48.3867 12.9385 48.3516 13.0674 48.2812 13.1436C48.2168 13.2197 48.1289 13.2578 48.0176 13.2578C47.918 13.2578 47.833 13.2227 47.7627 13.1523C47.6982 13.082 47.6602 12.9678 47.6484 12.8096C47.6191 12.3174 47.3525 11.8809 46.8486 11.5C46.1689 10.9785 45.3955 10.7178 44.5283 10.7178C43.96 10.7178 43.4238 10.8438 42.9199 11.0957C42.5449 11.2773 42.2461 11.5 42.0234 11.7637C41.6367 12.2207 41.3291 12.7275 41.1006 13.2842C40.9365 13.6943 40.8545 14.1572 40.8545 14.6729V15.9648C40.8545 17.0664 41.2529 18.0244 42.0498 18.8389C42.8467 19.6475 43.7725 20.0518 44.8271 20.0518C45.46 20.0518 46.0254 19.9141 46.5234 19.6387C47.0273 19.3633 47.5137 18.9473 47.9824 18.3906C48.082 18.2676 48.1934 18.2061 48.3164 18.2061C48.4219 18.2061 48.5068 18.2383 48.5713 18.3027C48.6357 18.3672 48.668 18.4492 48.668 18.5488C48.668 18.6836 48.542 18.8887 48.29 19.1641C47.8096 19.7031 47.2676 20.1104 46.6641 20.3857C46.0664 20.6553 45.46 20.79 44.8447 20.79C44.3115 20.79 43.7695 20.6875 43.2188 20.4824C42.7969 20.3242 42.4482 20.1396 42.1729 19.9287C41.8975 19.7178 41.5576 19.3633 41.1533 18.8652C40.7549 18.3613 40.4824 17.8984 40.3359 17.4766C40.1895 17.0488 40.1162 16.5801 40.1162 16.0703V14.5674C40.1162 13.8408 40.3096 13.0996 40.6963 12.3438C41.0889 11.582 41.6221 10.999 42.2959 10.5947C42.9756 10.1846 43.7109 9.97949 44.502 9.97949C45.7207 9.97949 46.7695 10.3955 47.6484 11.2275ZM59.3379 16.7119C59.3379 17.8369 58.9336 18.7979 58.125 19.5947C57.3223 20.3916 56.3525 20.79 55.2158 20.79C54.0674 20.79 53.0918 20.3916 52.2891 19.5947C51.4863 18.792 51.085 17.8311 51.085 16.7119C51.085 15.5869 51.4863 14.626 52.2891 13.8291C53.0918 13.0264 54.0674 12.625 55.2158 12.625C56.3525 12.625 57.3223 13.0234 58.125 13.8203C58.9336 14.6172 59.3379 15.5811 59.3379 16.7119ZM58.5908 16.7119C58.5908 15.7861 58.2598 14.998 57.5977 14.3477C56.9414 13.6973 56.1445 13.3721 55.207 13.3721C54.2695 13.3721 53.4697 13.7002 52.8076 14.3564C52.1514 15.0068 51.8232 15.792 51.8232 16.7119C51.8232 17.626 52.1514 18.4111 52.8076 19.0674C53.4697 19.7236 54.2695 20.0518 55.207 20.0518C56.1445 20.0518 56.9414 19.7266 57.5977 19.0762C58.2598 18.4199 58.5908 17.6318 58.5908 16.7119ZM68.5488 20.5V19.4189C67.541 20.333 66.4512 20.79 65.2793 20.79C64.5586 20.79 64.0107 20.5938 63.6357 20.2012C63.1494 19.6855 62.9062 19.085 62.9062 18.3994V13.6357H61.9131C61.7373 13.6357 61.6113 13.6006 61.5352 13.5303C61.459 13.46 61.4209 13.3691 61.4209 13.2578C61.4209 13.1523 61.459 13.0645 61.5352 12.9941C61.6113 12.9238 61.7373 12.8887 61.9131 12.8887H63.6445V18.3994C63.6445 18.8799 63.7969 19.2754 64.1016 19.5859C64.4062 19.8965 64.7871 20.0518 65.2441 20.0518C66.4453 20.0518 67.5469 19.501 68.5488 18.3994V13.6357H67.1865C67.0107 13.6357 66.8848 13.6006 66.8086 13.5303C66.7324 13.46 66.6943 13.3691 66.6943 13.2578C66.6943 13.1523 66.7324 13.0645 66.8086 12.9941C66.8848 12.9238 67.0107 12.8887 67.1865 12.8887H69.2871V19.7617H69.9111C70.0869 19.7617 70.2129 19.7969 70.2891 19.8672C70.3652 19.9316 70.4033 20.0195 70.4033 20.1309C70.4033 20.2363 70.3652 20.3242 70.2891 20.3945C70.2129 20.4648 70.0869 20.5 69.9111 20.5H68.5488ZM74.4463 12.8887V14.0049C74.9619 13.4834 75.4277 13.123 75.8438 12.9238C76.2598 12.7246 76.7285 12.625 77.25 12.625C77.8125 12.625 78.3252 12.7451 78.7881 12.9854C79.1162 13.1611 79.4121 13.4541 79.6758 13.8643C79.9453 14.2686 80.0801 14.6846 80.0801 15.1123V19.7617H80.7041C80.8799 19.7617 81.0059 19.7969 81.082 19.8672C81.1582 19.9316 81.1963 20.0195 81.1963 20.1309C81.1963 20.2363 81.1582 20.3242 81.082 20.3945C81.0059 20.4648 80.8799 20.5 80.7041 20.5H78.7266C78.5449 20.5 78.416 20.4648 78.3398 20.3945C78.2637 20.3242 78.2256 20.2363 78.2256 20.1309C78.2256 20.0195 78.2637 19.9316 78.3398 19.8672C78.416 19.7969 78.5449 19.7617 78.7266 19.7617H79.3418V15.2354C79.3418 14.7139 79.1514 14.2744 78.7705 13.917C78.3896 13.5537 77.8799 13.3721 77.2412 13.3721C76.7549 13.3721 76.333 13.4717 75.9756 13.6709C75.6182 13.8643 75.1084 14.3506 74.4463 15.1299V19.7617H75.2812C75.457 19.7617 75.583 19.7969 75.6592 19.8672C75.7354 19.9316 75.7734 20.0195 75.7734 20.1309C75.7734 20.2363 75.7354 20.3242 75.6592 20.3945C75.583 20.4648 75.457 20.5 75.2812 20.5H72.873C72.6973 20.5 72.5713 20.4648 72.4951 20.3945C72.4189 20.3242 72.3809 20.2363 72.3809 20.1309C72.3809 20.0195 72.4189 19.9316 72.4951 19.8672C72.5713 19.7969 72.6973 19.7617 72.873 19.7617H73.708V13.6357H73.084C72.9082 13.6357 72.7822 13.6006 72.7061 13.5303C72.6299 13.46 72.5918 13.3691 72.5918 13.2578C72.5918 13.1523 72.6299 13.0645 72.7061 12.9941C72.7822 12.9238 72.9082 12.8887 73.084 12.8887H74.4463ZM86.127 12.8887H90.1348C90.3105 12.8887 90.4365 12.9238 90.5127 12.9941C90.5889 13.0645 90.627 13.1553 90.627 13.2666C90.627 13.3721 90.5889 13.46 90.5127 13.5303C90.4365 13.6006 90.3105 13.6357 90.1348 13.6357H86.127V18.5488C86.127 18.9766 86.2969 19.334 86.6367 19.6211C86.9824 19.9082 87.4863 20.0518 88.1484 20.0518C88.6465 20.0518 89.1855 19.9785 89.7656 19.832C90.3457 19.6797 90.7969 19.5098 91.1191 19.3223C91.2363 19.2461 91.333 19.208 91.4092 19.208C91.5029 19.208 91.585 19.2461 91.6553 19.3223C91.7256 19.3926 91.7607 19.4775 91.7607 19.5771C91.7607 19.665 91.7227 19.7471 91.6465 19.8232C91.459 20.0166 91.002 20.2275 90.2754 20.4561C89.5547 20.6787 88.8633 20.79 88.2012 20.79C87.3398 20.79 86.6543 20.5879 86.1445 20.1836C85.6348 19.7793 85.3799 19.2344 85.3799 18.5488V13.6357H84.0176C83.8418 13.6357 83.7158 13.6006 83.6396 13.5303C83.5635 13.46 83.5254 13.3691 83.5254 13.2578C83.5254 13.1523 83.5635 13.0645 83.6396 12.9941C83.7158 12.9238 83.8418 12.8887 84.0176 12.8887H85.3799V10.709C85.3799 10.5332 85.415 10.4072 85.4854 10.3311C85.5557 10.2549 85.6436 10.2168 85.749 10.2168C85.8604 10.2168 85.9512 10.2549 86.0215 10.3311C86.0918 10.4072 86.127 10.5332 86.127 10.709V12.8887ZM102.448 16.8701H94.9248C95.0537 17.8252 95.4521 18.5957 96.1201 19.1816C96.7939 19.7617 97.626 20.0518 98.6162 20.0518C99.167 20.0518 99.7441 19.9609 100.348 19.7793C100.951 19.5977 101.443 19.3574 101.824 19.0586C101.936 18.9707 102.032 18.9268 102.114 18.9268C102.208 18.9268 102.29 18.9648 102.36 19.041C102.431 19.1113 102.466 19.1963 102.466 19.2959C102.466 19.3955 102.419 19.4922 102.325 19.5859C102.044 19.8789 101.543 20.1543 100.822 20.4121C100.107 20.6641 99.3721 20.79 98.6162 20.79C97.3506 20.79 96.293 20.377 95.4434 19.5508C94.5996 18.7188 94.1777 17.7139 94.1777 16.5361C94.1777 15.4639 94.5732 14.5439 95.3643 13.7764C96.1611 13.0088 97.1455 12.625 98.3174 12.625C99.5244 12.625 100.518 13.0205 101.297 13.8115C102.076 14.5967 102.46 15.6162 102.448 16.8701ZM101.701 16.123C101.555 15.3086 101.168 14.6465 100.541 14.1367C99.9199 13.627 99.1787 13.3721 98.3174 13.3721C97.4561 13.3721 96.7148 13.624 96.0938 14.1279C95.4727 14.6318 95.0859 15.2969 94.9336 16.123H101.701ZM108.381 12.8887V14.752C109.342 13.8848 110.06 13.3281 110.534 13.082C111.015 12.8301 111.457 12.7041 111.861 12.7041C112.301 12.7041 112.708 12.8535 113.083 13.1523C113.464 13.4453 113.654 13.668 113.654 13.8203C113.654 13.9316 113.616 14.0254 113.54 14.1016C113.47 14.1719 113.379 14.207 113.268 14.207C113.209 14.207 113.159 14.1982 113.118 14.1807C113.077 14.1572 113.001 14.0898 112.89 13.9785C112.685 13.7734 112.506 13.6328 112.354 13.5566C112.201 13.4805 112.052 13.4424 111.905 13.4424C111.583 13.4424 111.193 13.5713 110.736 13.8291C110.285 14.0869 109.5 14.7168 108.381 15.7188V19.7617H111.65C111.832 19.7617 111.961 19.7969 112.037 19.8672C112.113 19.9316 112.151 20.0195 112.151 20.1309C112.151 20.2363 112.113 20.3242 112.037 20.3945C111.961 20.4648 111.832 20.5 111.65 20.5H105.858C105.683 20.5 105.557 20.4678 105.48 20.4033C105.404 20.333 105.366 20.2451 105.366 20.1396C105.366 20.04 105.401 19.958 105.472 19.8936C105.548 19.8232 105.677 19.7881 105.858 19.7881H107.643V13.6357H106.28C106.104 13.6357 105.979 13.6006 105.902 13.5303C105.826 13.46 105.788 13.3691 105.788 13.2578C105.788 13.1523 105.823 13.0645 105.894 12.9941C105.97 12.9238 106.099 12.8887 106.28 12.8887H108.381ZM123.322 11.2275V10.709C123.322 10.5332 123.354 10.4072 123.419 10.3311C123.489 10.2549 123.58 10.2168 123.691 10.2168C123.803 10.2168 123.891 10.2549 123.955 10.3311C124.025 10.4072 124.061 10.5332 124.061 10.709V12.7568C124.061 12.9385 124.025 13.0674 123.955 13.1436C123.891 13.2197 123.803 13.2578 123.691 13.2578C123.592 13.2578 123.507 13.2227 123.437 13.1523C123.372 13.082 123.334 12.9678 123.322 12.8096C123.293 12.3174 123.026 11.8809 122.522 11.5C121.843 10.9785 121.069 10.7178 120.202 10.7178C119.634 10.7178 119.098 10.8438 118.594 11.0957C118.219 11.2773 117.92 11.5 117.697 11.7637C117.311 12.2207 117.003 12.7275 116.774 13.2842C116.61 13.6943 116.528 14.1572 116.528 14.6729V15.9648C116.528 17.0664 116.927 18.0244 117.724 18.8389C118.521 19.6475 119.446 20.0518 120.501 20.0518C121.134 20.0518 121.699 19.9141 122.197 19.6387C122.701 19.3633 123.188 18.9473 123.656 18.3906C123.756 18.2676 123.867 18.2061 123.99 18.2061C124.096 18.2061 124.181 18.2383 124.245 18.3027C124.31 18.3672 124.342 18.4492 124.342 18.5488C124.342 18.6836 124.216 18.8887 123.964 19.1641C123.483 19.7031 122.941 20.1104 122.338 20.3857C121.74 20.6553 121.134 20.79 120.519 20.79C119.985 20.79 119.443 20.6875 118.893 20.4824C118.471 20.3242 118.122 20.1396 117.847 19.9287C117.571 19.7178 117.231 19.3633 116.827 18.8652C116.429 18.3613 116.156 17.8984 116.01 17.4766C115.863 17.0488 115.79 16.5801 115.79 16.0703V14.5674C115.79 13.8408 115.983 13.0996 116.37 12.3438C116.763 11.582 117.296 10.999 117.97 10.5947C118.649 10.1846 119.385 9.97949 120.176 9.97949C121.395 9.97949 122.443 10.3955 123.322 11.2275ZM128.455 9.46973V14.0137C128.924 13.5039 129.372 13.1465 129.8 12.9414C130.233 12.7305 130.717 12.625 131.25 12.625C131.824 12.625 132.311 12.7275 132.709 12.9326C133.113 13.1318 133.45 13.4424 133.72 13.8643C133.989 14.2803 134.124 14.7197 134.124 15.1826V19.7617H134.95C135.132 19.7617 135.258 19.7969 135.328 19.8672C135.404 19.9316 135.442 20.0195 135.442 20.1309C135.442 20.2363 135.404 20.3242 135.328 20.3945C135.258 20.4648 135.132 20.5 134.95 20.5H132.551C132.369 20.5 132.24 20.4648 132.164 20.3945C132.088 20.3242 132.05 20.2363 132.05 20.1309C132.05 20.0195 132.088 19.9316 132.164 19.8672C132.24 19.7969 132.369 19.7617 132.551 19.7617H133.377V15.2354C133.377 14.7021 133.184 14.2568 132.797 13.8994C132.416 13.542 131.883 13.3633 131.197 13.3633C130.658 13.3633 130.198 13.4951 129.817 13.7588C129.542 13.9463 129.088 14.3887 128.455 15.0859V19.7617H129.29C129.466 19.7617 129.592 19.7969 129.668 19.8672C129.744 19.9316 129.782 20.0195 129.782 20.1309C129.782 20.2363 129.744 20.3242 129.668 20.3945C129.592 20.4648 129.466 20.5 129.29 20.5H126.882C126.706 20.5 126.58 20.4648 126.504 20.3945C126.428 20.3242 126.39 20.2363 126.39 20.1309C126.39 20.0195 126.428 19.9316 126.504 19.8672C126.58 19.7969 126.706 19.7617 126.882 19.7617H127.717V10.2168H126.724C126.548 10.2168 126.422 10.1816 126.346 10.1113C126.27 10.041 126.231 9.9502 126.231 9.83887C126.231 9.7334 126.27 9.64551 126.346 9.5752C126.422 9.50488 126.548 9.46973 126.724 9.46973H128.455ZM143.818 20.5V19.4365C142.746 20.3389 141.601 20.79 140.382 20.79C139.497 20.79 138.806 20.5674 138.308 20.1221C137.81 19.6709 137.561 19.1201 137.561 18.4697C137.561 17.7549 137.889 17.1309 138.545 16.5977C139.201 16.0645 140.159 15.7979 141.419 15.7979C141.759 15.7979 142.128 15.8213 142.526 15.8682C142.925 15.9092 143.355 15.9766 143.818 16.0703V14.875C143.818 14.4707 143.631 14.1191 143.256 13.8203C142.881 13.5215 142.318 13.3721 141.568 13.3721C140.994 13.3721 140.188 13.5391 139.151 13.873C138.964 13.9316 138.844 13.9609 138.791 13.9609C138.697 13.9609 138.615 13.9258 138.545 13.8555C138.48 13.7852 138.448 13.6973 138.448 13.5918C138.448 13.4922 138.478 13.4131 138.536 13.3545C138.618 13.2666 138.949 13.1465 139.529 12.9941C140.443 12.748 141.135 12.625 141.604 12.625C142.535 12.625 143.262 12.8564 143.783 13.3193C144.305 13.7764 144.565 14.2949 144.565 14.875V19.7617H145.55C145.731 19.7617 145.86 19.7969 145.937 19.8672C146.013 19.9316 146.051 20.0195 146.051 20.1309C146.051 20.2363 146.013 20.3242 145.937 20.3945C145.86 20.4648 145.731 20.5 145.55 20.5H143.818ZM143.818 16.8262C143.473 16.7266 143.106 16.6533 142.72 16.6064C142.333 16.5596 141.926 16.5361 141.498 16.5361C140.426 16.5361 139.588 16.7676 138.984 17.2305C138.527 17.5762 138.299 17.9893 138.299 18.4697C138.299 18.915 138.472 19.29 138.817 19.5947C139.169 19.8994 139.679 20.0518 140.347 20.0518C140.985 20.0518 141.577 19.9258 142.122 19.6738C142.673 19.416 143.238 19.0088 143.818 18.4521V16.8262ZM152.871 9.10059V11.0078H151.781V9.10059H152.871ZM152.897 12.8887V19.7617H155.798C155.979 19.7617 156.108 19.7969 156.185 19.8672C156.261 19.9316 156.299 20.0195 156.299 20.1309C156.299 20.2363 156.261 20.3242 156.185 20.3945C156.108 20.4648 155.979 20.5 155.798 20.5H149.259C149.083 20.5 148.957 20.4648 148.881 20.3945C148.805 20.3242 148.767 20.2363 148.767 20.1309C148.767 20.0195 148.805 19.9316 148.881 19.8672C148.957 19.7969 149.083 19.7617 149.259 19.7617H152.159V13.6357H150.006C149.83 13.6357 149.701 13.6006 149.619 13.5303C149.543 13.46 149.505 13.3721 149.505 13.2666C149.505 13.1553 149.543 13.0645 149.619 12.9941C149.695 12.9238 149.824 12.8887 150.006 12.8887H152.897ZM160.931 12.8887V14.0049C161.446 13.4834 161.912 13.123 162.328 12.9238C162.744 12.7246 163.213 12.625 163.734 12.625C164.297 12.625 164.81 12.7451 165.272 12.9854C165.601 13.1611 165.896 13.4541 166.16 13.8643C166.43 14.2686 166.564 14.6846 166.564 15.1123V19.7617H167.188C167.364 19.7617 167.49 19.7969 167.566 19.8672C167.643 19.9316 167.681 20.0195 167.681 20.1309C167.681 20.2363 167.643 20.3242 167.566 20.3945C167.49 20.4648 167.364 20.5 167.188 20.5H165.211C165.029 20.5 164.9 20.4648 164.824 20.3945C164.748 20.3242 164.71 20.2363 164.71 20.1309C164.71 20.0195 164.748 19.9316 164.824 19.8672C164.9 19.7969 165.029 19.7617 165.211 19.7617H165.826V15.2354C165.826 14.7139 165.636 14.2744 165.255 13.917C164.874 13.5537 164.364 13.3721 163.726 13.3721C163.239 13.3721 162.817 13.4717 162.46 13.6709C162.103 13.8643 161.593 14.3506 160.931 15.1299V19.7617H161.766C161.941 19.7617 162.067 19.7969 162.144 19.8672C162.22 19.9316 162.258 20.0195 162.258 20.1309C162.258 20.2363 162.22 20.3242 162.144 20.3945C162.067 20.4648 161.941 20.5 161.766 20.5H159.357C159.182 20.5 159.056 20.4648 158.979 20.3945C158.903 20.3242 158.865 20.2363 158.865 20.1309C158.865 20.0195 158.903 19.9316 158.979 19.8672C159.056 19.7969 159.182 19.7617 159.357 19.7617H160.192V13.6357H159.568C159.393 13.6357 159.267 13.6006 159.19 13.5303C159.114 13.46 159.076 13.3691 159.076 13.2578C159.076 13.1523 159.114 13.0645 159.19 12.9941C159.267 12.9238 159.393 12.8887 159.568 12.8887H160.931Z" fill="black"/>
<defs>
<clipPath id="clip0_1_3">
<rect width="31" height="31" fill="white" transform="matrix(-1 0 0 1 31 0)"/>
</clipPath>
</defs>
</svg>
