<svg width="125" height="58" viewBox="0 0 125 58" fill="none" xmlns="http://www.w3.org/2000/svg">
<g clip-path="url(#clip0_2_2)">
<path d="M62.4985 0C54.2151 0 47.5 6.73464 47.5 15.0422C47.5 22.8081 53.3641 29.196 60.8953 30C61.0376 28.9426 60.9505 27.1453 60.9505 27.1453C60.9505 27.1453 60.9534 27.1453 60.9563 27.1453C60.9418 26.5133 60.8779 24.9287 60.7617 24.5792C60.7443 24.5266 60.7268 24.4625 60.7065 24.3898C60.6106 24.049 60.4654 23.5334 60.082 23.2363C59.8265 23.0382 59.4925 22.8022 59.0335 22.4964C58.5456 22.1701 57.8747 21.7273 57.5755 20.6409C57.2909 19.6068 56.6316 18.6018 55.7196 17.8153C55.525 17.6784 54.915 17.2531 54.7321 17.1017C54.6885 17.0638 54.6653 17.0055 54.674 16.9473C54.7117 16.6647 54.8366 16.4463 55.0429 16.3035C55.3536 16.088 55.8329 16.0559 56.4718 16.2016C57.3315 16.3997 58.3481 17.6056 59.0219 18.4008C59.2485 18.6688 59.4431 18.8989 59.5476 18.9863C59.6987 19.1116 59.8381 19.1669 59.9165 19.132C59.9804 19.1028 60.0443 18.9805 60.0443 18.7271C60.0124 17.4687 59.9543 17.1162 59.9223 17.0201C59.6987 16.3589 58.9435 13.4372 58.3016 10.5476C58.1622 9.91261 58.38 9.32711 58.8128 9.18439C58.9667 9.13487 59.4983 9.04166 59.9107 9.98252C60.1576 10.5476 60.4422 11.5613 60.7443 12.6362C61.0231 13.6324 61.3135 14.6606 61.5604 15.2636C61.5691 15.284 61.5778 15.3015 61.5895 15.3306C61.6272 15.4122 61.6621 15.4646 61.6853 15.4967C61.7753 15.3772 61.8363 15.1937 61.8654 15.0452C61.999 13.5246 62.0425 10.9234 61.9583 9.79028C61.8828 8.81445 62.3069 8.31343 62.7309 8.26099C63.1491 8.20856 63.64 8.57268 63.7997 9.5019C63.8404 9.74075 63.8491 10.3379 63.8607 11.0923C63.8695 11.6545 63.8782 12.2895 63.9043 12.8663C63.9217 13.2566 63.9304 13.6003 63.9362 13.9033C63.9479 14.4451 63.9595 14.8733 64.0118 15.1966C64.0379 15.3598 64.0669 15.4937 64.0931 15.6103C64.1599 15.7005 64.247 15.785 64.2935 15.7821C64.4678 15.5666 64.6159 15.2287 64.6159 15.2287C64.9993 14.2616 65.4117 12.7061 65.6847 11.6778C65.8416 11.0836 65.9461 10.6933 66.0042 10.5564C66.527 9.30674 67.0062 9.231 67.2473 9.29508C67.651 9.40576 67.8601 10.0379 67.7527 10.8302C67.6975 11.2322 67.3519 12.4935 66.983 13.8276C66.7361 14.7218 66.4805 15.6481 66.3005 16.3676C66.3063 16.3851 66.3121 16.4026 66.3179 16.4171C66.3789 16.3647 66.466 16.2686 66.5299 16.1841C66.6984 15.919 66.8726 15.6452 67.0295 15.4005C67.1718 15.1792 67.2967 14.984 67.3867 14.8412C68.2261 13.5217 68.7721 12.7527 69.0626 12.4935C69.3821 12.208 69.8003 12.1614 70.0819 12.3827C70.201 12.476 70.5525 12.8401 70.1285 13.6353C69.9136 14.0344 69.6638 14.4859 69.3966 14.9607C68.7605 16.0996 68.0402 17.3871 67.773 18.127C67.622 18.5465 67.5087 19.2048 67.3925 19.901C67.2851 20.5331 67.1747 21.1856 67.0266 21.6778C66.7448 22.6157 66.4254 23.8218 66.3731 24.3869C66.3353 24.8149 66.3557 26.289 66.3673 26.9006C66.3673 26.9035 66.3673 26.9064 66.3673 26.9064C66.4166 27.2503 66.527 28.5524 66.6054 29.5077C72.8937 27.7162 77.5 21.9167 77.5 15.0335C77.5 6.73464 70.7849 0 62.4985 0Z" fill="black"/>
<path d="M15.498 44.792H7.848C7.848 44.792 7.848 44.798 7.848 44.81V45.854C7.848 45.866 7.848 45.872 7.848 45.872H15.228V50.156H7.848C7.848 50.156 7.848 50.162 7.848 50.174C7.848 50.582 7.848 50.924 7.848 51.2C7.848 51.464 7.848 51.728 7.848 51.992C7.848 52.256 7.848 52.592 7.848 53H0.36C0.36 52.148 0.36 51.296 0.36 50.444C0.36 49.592 0.36 48.746 0.36 47.906C0.36 47.054 0.36 46.202 0.36 45.35C0.36 44.498 0.36 43.646 0.36 42.794C0.36 42.242 0.36 41.696 0.36 41.156C0.36 40.604 0.36 40.052 0.36 39.5H15.498V44.792ZM17.0272 42.488C17.9032 42.092 18.8512 41.798 19.8712 41.606C20.9032 41.402 21.9352 41.3 22.9672 41.3C23.9752 41.3 24.9472 41.396 25.8832 41.588C26.8192 41.78 27.6532 42.074 28.3852 42.47C29.1292 42.866 29.7172 43.358 30.1492 43.946C30.5812 44.534 30.7972 45.224 30.7972 46.016C30.7972 47.18 30.7972 48.344 30.7972 49.508C30.7972 50.672 30.7972 51.836 30.7972 53C30.3772 53 29.9572 53 29.5372 53C29.1172 53 28.6972 53 28.2772 53C27.8572 53 27.4372 53 27.0172 53C26.5972 53 26.1772 53 25.7572 53C25.3372 53 24.9172 53 24.4972 53C24.4972 52.364 24.4972 51.734 24.4972 51.11C24.4972 50.474 24.4972 49.844 24.4972 49.22C24.4972 49.004 24.4252 48.83 24.2812 48.698C24.1372 48.566 23.9632 48.476 23.7592 48.428C23.5552 48.368 23.3512 48.338 23.1472 48.338C22.6912 48.338 22.3432 48.428 22.1032 48.608C21.8752 48.788 21.7612 48.992 21.7612 49.22C21.7612 49.448 21.8812 49.658 22.1212 49.85C22.3612 50.03 22.7032 50.12 23.1472 50.12C23.3632 50.12 23.6092 50.078 23.8852 49.994C24.1612 49.91 24.3712 49.694 24.5152 49.346C24.2632 49.934 24.0052 50.522 23.7412 51.11C23.4892 51.698 23.2372 52.286 22.9852 52.874C22.5532 53.09 22.0972 53.24 21.6172 53.324C21.1492 53.42 20.6812 53.468 20.2132 53.468C19.6492 53.468 19.1032 53.39 18.5752 53.234C18.0592 53.09 17.5912 52.874 17.1712 52.586C16.7632 52.298 16.4392 51.938 16.1992 51.506C15.9592 51.074 15.8392 50.57 15.8392 49.994C15.8392 49.646 15.8992 49.304 16.0192 48.968C16.1392 48.632 16.3192 48.314 16.5592 48.014C16.7992 47.714 17.0992 47.45 17.4592 47.222C17.8312 46.994 18.2692 46.82 18.7732 46.7C19.2772 46.568 19.8532 46.502 20.5012 46.502C20.9212 46.502 21.3292 46.538 21.7252 46.61C22.1212 46.67 22.4932 46.766 22.8412 46.898C23.2012 47.03 23.5192 47.192 23.7952 47.384C24.0832 47.576 24.3172 47.792 24.4972 48.032C24.4972 48.008 24.4972 47.99 24.4972 47.978C24.4972 47.954 24.4972 47.936 24.4972 47.924C24.4972 47.9 24.4972 47.882 24.4972 47.87C24.4972 47.498 24.4012 47.18 24.2092 46.916C24.0292 46.64 23.7772 46.418 23.4532 46.25C23.1412 46.07 22.7752 45.938 22.3552 45.854C21.9472 45.77 21.5152 45.728 21.0592 45.728C20.3512 45.728 19.6372 45.818 18.9172 45.998C18.1972 46.178 17.5672 46.442 17.0272 46.79V42.488ZM31.3109 45.404C31.3109 44.72 31.5029 44.126 31.8869 43.622C32.2829 43.118 32.8169 42.698 33.4889 42.362C34.1609 42.014 34.9229 41.756 35.7749 41.588C36.6269 41.42 37.5149 41.336 38.4389 41.336C39.5789 41.336 40.6349 41.438 41.6069 41.642C42.5909 41.846 43.4789 42.116 44.2709 42.452V46.628C43.9349 46.376 43.4909 46.16 42.9389 45.98C42.3989 45.8 41.8229 45.662 41.2109 45.566C40.6109 45.47 40.0409 45.422 39.5009 45.422C39.1409 45.422 38.8109 45.446 38.5109 45.494C38.2229 45.53 37.9889 45.59 37.8089 45.674C37.6409 45.758 37.5569 45.866 37.5569 45.998C37.5569 46.07 37.5809 46.124 37.6289 46.16C37.6889 46.196 37.7729 46.22 37.8809 46.232C37.9889 46.244 38.1269 46.25 38.2949 46.25C38.5709 46.25 38.8169 46.25 39.0329 46.25C39.2489 46.25 39.4889 46.25 39.7529 46.25C40.3529 46.25 40.9529 46.292 41.5529 46.376C42.1649 46.448 42.7169 46.598 43.2089 46.826C43.7129 47.054 44.1149 47.384 44.4149 47.816C44.7149 48.236 44.8649 48.794 44.8649 49.49C44.8649 50.222 44.6609 50.846 44.2529 51.362C43.8569 51.866 43.3109 52.28 42.6149 52.604C41.9309 52.916 41.1569 53.144 40.2929 53.288C39.4409 53.432 38.5529 53.504 37.6289 53.504C36.5369 53.504 35.4569 53.402 34.3889 53.198C33.3329 52.994 32.4269 52.694 31.6709 52.298V47.906C31.9709 48.23 32.3969 48.5 32.9489 48.716C33.5129 48.92 34.1189 49.076 34.7669 49.184C35.4269 49.28 36.0449 49.328 36.6209 49.328C36.9929 49.328 37.3289 49.31 37.6289 49.274C37.9289 49.226 38.1629 49.16 38.3309 49.076C38.5109 48.98 38.6009 48.86 38.6009 48.716C38.6009 48.656 38.5829 48.614 38.5469 48.59C38.5109 48.566 38.4509 48.548 38.3669 48.536C38.2949 48.524 38.1929 48.518 38.0609 48.518C37.8809 48.518 37.6949 48.518 37.5029 48.518C37.3109 48.518 37.1369 48.518 36.9809 48.518C36.5609 48.518 36.0929 48.506 35.5769 48.482C35.0729 48.446 34.5689 48.38 34.0649 48.284C33.5609 48.176 33.0989 48.014 32.6789 47.798C32.2709 47.57 31.9409 47.264 31.6889 46.88C31.4369 46.484 31.3109 45.992 31.3109 45.404ZM51.6227 46.736C51.7667 46.184 51.9047 45.638 52.0367 45.098C52.1807 44.558 52.3187 44.018 52.4507 43.478C52.5947 42.926 52.7327 42.38 52.8647 41.84H56.3747V46.736H51.6227ZM45.4487 48.302C45.4487 47.27 45.4487 46.184 45.4487 45.044C45.4487 43.904 45.4487 42.824 45.4487 41.804L51.6047 40.328C51.6047 40.916 51.6047 41.516 51.6047 42.128C51.6047 42.74 51.6047 43.352 51.6047 43.964C51.6047 44.408 51.6047 44.852 51.6047 45.296C51.6047 45.74 51.6047 46.178 51.6047 46.61C51.6047 46.622 51.6047 46.628 51.6047 46.628C51.6047 46.628 51.6047 46.634 51.6047 46.646C51.6047 46.874 51.6527 47.072 51.7487 47.24C51.8567 47.408 52.0007 47.552 52.1807 47.672C52.3727 47.78 52.5947 47.864 52.8467 47.924C53.0987 47.984 53.3807 48.014 53.6927 48.014C54.0407 48.014 54.3947 47.96 54.7547 47.852C55.1147 47.744 55.4387 47.594 55.7267 47.402C56.0267 47.21 56.2427 46.988 56.3747 46.736V52.208C55.8587 52.616 55.1927 52.916 54.3767 53.108C53.5607 53.312 52.7447 53.414 51.9287 53.414C50.6927 53.414 49.5827 53.216 48.5987 52.82C47.6267 52.412 46.8587 51.83 46.2947 51.074C45.7307 50.306 45.4487 49.382 45.4487 48.302ZM65.0222 53.54C63.8942 53.54 62.8382 53.414 61.8542 53.162C60.8822 52.91 60.0242 52.532 59.2802 52.028C58.5482 51.512 57.9722 50.87 57.5522 50.102C57.1322 49.334 56.9222 48.44 56.9222 47.42C56.9222 46.892 56.9762 46.4 57.0842 45.944C57.2042 45.488 57.3722 45.068 57.5882 44.684C57.8042 44.288 58.0622 43.928 58.3622 43.604C58.6742 43.28 59.0222 42.992 59.4062 42.74C59.8982 42.416 60.4382 42.152 61.0262 41.948C61.6142 41.732 62.2442 41.57 62.9162 41.462C63.6002 41.354 64.3022 41.3 65.0222 41.3C66.4022 41.3 67.6442 41.492 68.7482 41.876C69.8642 42.248 70.7822 42.812 71.5022 43.568C72.2342 44.324 72.6902 45.272 72.8702 46.412L67.0922 47.438C67.0922 47.114 66.9902 46.85 66.7862 46.646C66.5822 46.442 66.3242 46.298 66.0122 46.214C65.7002 46.118 65.3702 46.07 65.0222 46.07C64.6382 46.07 64.2842 46.124 63.9602 46.232C63.6482 46.328 63.4022 46.478 63.2222 46.682C63.0422 46.874 62.9522 47.12 62.9522 47.42C62.9522 47.648 63.0002 47.846 63.0962 48.014C63.2042 48.182 63.3542 48.326 63.5462 48.446C63.7382 48.554 63.9602 48.638 64.2122 48.698C64.4642 48.746 64.7342 48.77 65.0222 48.77C65.3582 48.77 65.6822 48.728 65.9942 48.644C66.3182 48.56 66.5822 48.422 66.7862 48.23C66.9902 48.026 67.0922 47.762 67.0922 47.438C68.1002 47.558 69.0662 47.684 69.9902 47.816C70.9142 47.936 71.8802 48.062 72.8882 48.194C72.7442 49.358 72.3122 50.342 71.5922 51.146C70.8842 51.938 69.9602 52.538 68.8202 52.946C67.6922 53.342 66.4262 53.54 65.0222 53.54ZM73.485 53C73.485 51.884 73.485 50.774 73.485 49.67C73.485 48.566 73.485 47.462 73.485 46.358C73.485 45.242 73.485 44.132 73.485 43.028C73.485 42.428 73.485 41.84 73.485 41.264C73.485 40.676 73.485 40.088 73.485 39.5H79.713C79.713 39.872 79.713 40.31 79.713 40.814C79.713 41.306 79.713 41.822 79.713 42.362C79.713 42.902 79.713 43.424 79.713 43.928C79.713 44.6 79.713 45.176 79.713 45.656C79.713 46.136 79.713 46.406 79.713 46.466C79.713 46.526 79.713 46.664 79.713 46.88C79.713 47.084 79.713 47.336 79.713 47.636C79.713 48.032 79.713 48.476 79.713 48.968C79.713 49.46 79.713 49.964 79.713 50.48C79.713 50.984 79.713 51.458 79.713 51.902C79.713 52.346 79.713 52.712 79.713 53H73.485ZM81.621 53C81.621 52.532 81.621 52.064 81.621 51.596C81.621 51.128 81.621 50.666 81.621 50.21C81.621 49.742 81.621 49.274 81.621 48.806C81.621 48.338 81.621 47.87 81.621 47.402C81.621 47.054 81.531 46.802 81.351 46.646C81.183 46.49 80.979 46.406 80.739 46.394C80.499 46.37 80.277 46.388 80.073 46.448C79.881 46.508 79.761 46.574 79.713 46.646L81.153 42.02C81.585 41.828 82.047 41.684 82.539 41.588C83.031 41.492 83.517 41.444 83.997 41.444C84.669 41.444 85.293 41.552 85.869 41.768C86.457 41.984 86.931 42.326 87.291 42.794C87.663 43.262 87.849 43.886 87.849 44.666C87.849 45.59 87.849 46.52 87.849 47.456C87.849 48.38 87.849 49.304 87.849 50.228C87.849 51.152 87.849 52.076 87.849 53H81.621ZM96.4695 53.54C95.7255 53.54 95.0055 53.486 94.3095 53.378C93.6135 53.27 92.9655 53.108 92.3655 52.892C91.7655 52.664 91.2195 52.382 90.7275 52.046C90.2355 51.71 89.8155 51.32 89.4675 50.876C89.1195 50.42 88.8495 49.91 88.6575 49.346C88.4655 48.77 88.3695 48.134 88.3695 47.438C88.3695 46.622 88.5015 45.89 88.7655 45.242C89.0415 44.582 89.4255 44.006 89.9175 43.514C90.4215 43.022 91.0095 42.614 91.6815 42.29C92.3535 41.954 93.0915 41.708 93.8955 41.552C94.7115 41.384 95.5695 41.3 96.4695 41.3C97.5975 41.3 98.6475 41.432 99.6195 41.696C100.603 41.948 101.461 42.332 102.193 42.848C102.937 43.352 103.519 43.988 103.939 44.756C104.359 45.524 104.569 46.418 104.569 47.438C104.569 48.458 104.359 49.352 103.939 50.12C103.519 50.876 102.937 51.512 102.193 52.028C101.461 52.532 100.603 52.91 99.6195 53.162C98.6475 53.414 97.5975 53.54 96.4695 53.54ZM96.4875 48.77C97.2315 48.77 97.7595 48.626 98.0715 48.338C98.3835 48.05 98.5395 47.738 98.5395 47.402C98.5395 47.246 98.5035 47.09 98.4315 46.934C98.3595 46.778 98.2455 46.634 98.0895 46.502C97.9335 46.37 97.7235 46.268 97.4595 46.196C97.1955 46.112 96.8715 46.07 96.4875 46.07C96.1035 46.07 95.7735 46.112 95.4975 46.196C95.2335 46.268 95.0175 46.37 94.8495 46.502C94.6935 46.634 94.5795 46.778 94.5075 46.934C94.4355 47.09 94.3995 47.252 94.3995 47.42C94.3995 47.588 94.4355 47.756 94.5075 47.924C94.5795 48.08 94.6995 48.224 94.8675 48.356C95.0355 48.476 95.2515 48.578 95.5155 48.662C95.7795 48.734 96.1035 48.77 96.4875 48.77ZM125.011 41.84C124.723 43.076 124.435 44.318 124.147 45.566C123.859 46.802 123.571 48.038 123.283 49.274C122.995 50.51 122.707 51.752 122.419 53H115.489L114.481 48.104C114.469 48.056 114.457 48.02 114.445 47.996C114.445 47.96 114.439 47.936 114.427 47.924C114.415 47.912 114.403 47.912 114.391 47.924C114.379 47.924 114.367 47.942 114.355 47.978C114.355 48.002 114.349 48.044 114.337 48.104L113.401 53H106.777C106.489 51.752 106.201 50.51 105.913 49.274C105.625 48.038 105.337 46.802 105.049 45.566C104.761 44.318 104.473 43.076 104.185 41.84H110.161C110.305 43.016 110.449 44.168 110.593 45.296C110.749 46.412 110.899 47.558 111.043 48.734C111.043 48.758 111.043 48.782 111.043 48.806C111.055 48.818 111.061 48.83 111.061 48.842C111.073 48.854 111.079 48.86 111.079 48.86C111.079 48.848 111.079 48.836 111.079 48.824C111.091 48.8 111.097 48.77 111.097 48.734L112.231 41.84H117.379L118.423 48.806C118.423 48.83 118.423 48.854 118.423 48.878C118.435 48.89 118.441 48.896 118.441 48.896C118.453 48.896 118.459 48.89 118.459 48.878C118.471 48.854 118.477 48.83 118.477 48.806C118.585 48.026 118.687 47.252 118.783 46.484C118.879 45.704 118.975 44.93 119.071 44.162C119.179 43.382 119.281 42.608 119.377 41.84H125.011Z" fill="black"/>
</g>
<defs>
<clipPath id="clip0_2_2">
<rect width="125" height="58" fill="white"/>
</clipPath>
</defs>
</svg>
